<?xml version="1.0" encoding="UTF-8"?>
<svg version="1.1" xmlns="http://www.w3.org/2000/svg" width="500" height="500">
<path d="M0 0 C165 0 330 0 500 0 C500 165 500 330 500 500 C335 500 170 500 0 500 C0 335 0 170 0 0 Z " fill="#FEFEFE" transform="translate(0,0)"/>
<path d="M0 0 C3.30429573 1.62188875 5.20268623 4.36498344 7.3828125 7.234375 C7.86443848 7.86005371 8.34606445 8.48573242 8.84228516 9.13037109 C22.71574695 27.54691935 31.73736781 49.23797315 28.80957031 72.62939453 C25.28314957 92.08590464 14.61358444 109.7093219 0.1328125 123.046875 C-11.45336773 118.62931313 -20.60737975 98.12378784 -25.53515625 87.42578125 C-32.49979326 70.08567327 -33.20207913 52.50385847 -26.05371094 35.06201172 C-22.29740149 26.46160221 -10.5510138 0.26487901 0 0 Z " fill="#FEFDFD" transform="translate(250.8671875,123.953125)"/>
<path d="M0 0 C0.495 0.99 0.495 0.99 1 2 C-1.96337245 0.88873533 -4.65139406 -0.35530585 -7.4375 -1.875 C-26.58223069 -11.21903369 -48.32870622 -8.61224575 -69 -7 C-61.60116085 15.38017657 -50.71097914 37.13619528 -28.7109375 48.3046875 C-10.99947411 56.647646 10.96741699 55.54734245 30 53 C29.525625 53.433125 29.05125 53.86625 28.5625 54.3125 C26.76313043 56.02309613 26.76313043 56.02309613 26 59 C24.36450195 60.10327148 24.36450195 60.10327148 22.23828125 61.12109375 C21.45710938 61.49758057 20.6759375 61.87406738 19.87109375 62.26196289 C15.60068138 64.22398918 11.32048971 66.15050246 7 68 C5.86949219 68.48726563 4.73898438 68.97453125 3.57421875 69.4765625 C-4.37266354 72.28372041 -12.2599016 72.39990384 -20.625 72.5 C-21.75744141 72.51877197 -22.88988281 72.53754395 -24.05664062 72.55688477 C-43.33254696 72.40970834 -59.09756761 61.92015992 -72.40234375 48.59375 C-87 32.8232906 -87 32.8232906 -87 27 C-84.44113496 25.67997444 -81.87832932 24.36886218 -79.3125 23.0625 C-78.59126953 22.68931641 -77.87003906 22.31613281 -77.12695312 21.93164062 C-73.43494258 20.06034761 -70.16306904 18.51730444 -66 18 C-66.64691069 13.69804389 -68.18015266 10.18716973 -70 6.25 C-72.46096444 0.76948271 -73.79244459 -3.98089301 -74 -10 C-50.29471046 -16.58480265 -20.21978936 -15.02167358 0 0 Z " fill="#FEFAFB" transform="translate(216,194)"/>
<path d="M0 0 C-0.51779668 6.86080598 -2.50563681 12.61627792 -5 19 C-5.58534753 20.56174655 -6.16893388 22.12415545 -6.75 23.6875 C-7.1625 24.780625 -7.575 25.87375 -8 27 C-7.2884375 27.11601562 -6.576875 27.23203125 -5.84375 27.3515625 C-2.82654253 28.03955212 -0.3052487 29.07481451 2.5 30.375 C3.87671875 31.00535156 3.87671875 31.00535156 5.28125 31.6484375 C7.94664548 32.97347606 10.47067112 34.4329158 13 36 C10.75349891 48.05439611 -3.67145238 60.88903001 -13.0703125 68.05078125 C-16.78301776 70.52096782 -20.58749682 72.73790763 -24.5 74.875 C-25.18787598 75.2568042 -25.87575195 75.6386084 -26.58447266 76.03198242 C-40.28632241 83.20906493 -59.75940595 83.59729524 -74.39672852 79.20410156 C-78.00776196 77.96178262 -81.51441976 76.55870139 -85 75 C-85.69464355 74.6901416 -86.38928711 74.3802832 -87.10498047 74.06103516 C-98.58716054 68.82567891 -98.58716054 68.82567891 -100 66 C-99.34 66 -98.68 66 -98 66 C-98 65.34 -98 64.68 -98 64 C-98.99 63.67 -99.98 63.34 -101 63 C-99.98800537 63.02094727 -98.97601074 63.04189453 -97.93334961 63.06347656 C-94.10342105 63.13702257 -90.27355176 63.18220637 -86.44311523 63.21972656 C-84.79945307 63.23958568 -83.15585904 63.26668256 -81.51245117 63.30175781 C-61.91788288 63.70885547 -44.88792797 59.65652686 -29.6015625 46.55078125 C-17.96202779 35.13844467 -8.32800735 19.0349445 -5 3 C-13.8739986 0.9803681 -22.62397338 0.56078245 -31.6875 0.5625 C-32.39488312 0.56110016 -33.10226624 0.55970032 -33.83108521 0.55825806 C-47.80024424 0.58100237 -59.39970441 2.44305265 -71.3984375 10.1796875 C-71.92695313 10.45039063 -72.45546875 10.72109375 -73 11 C-73.66 10.67 -74.32 10.34 -75 10 C-67.9392345 5.13804155 -61.22748099 1.44112073 -53 -1 C-52.0615625 -1.2990625 -51.123125 -1.598125 -50.15625 -1.90625 C-34.39827513 -6.29249043 -15.40274711 -5.39890105 0 0 Z " fill="#FEFAFB" transform="translate(358,185)"/>
<path d="M0 0 C4.77787493 2.65339549 6.7110995 5.93120642 8.3671875 11.11328125 C8.60962942 13.83540867 8.72131103 16.30737323 8.66015625 19.015625 C8.65591141 19.73818985 8.65166656 20.4607547 8.64729309 21.20521545 C8.63065168 23.48746818 8.59302998 25.76880058 8.5546875 28.05078125 C8.53962173 29.6087111 8.52593666 31.16665495 8.51367188 32.72460938 C8.48079632 36.52118182 8.4291184 40.31707612 8.3671875 44.11328125 C6.3871875 44.11328125 4.4071875 44.11328125 2.3671875 44.11328125 C1.8721875 41.63828125 1.8721875 41.63828125 1.3671875 39.11328125 C0.6040625 39.75265625 -0.1590625 40.39203125 -0.9453125 41.05078125 C-6.46833566 45.28938042 -12.94723131 44.70058261 -19.6328125 44.11328125 C-23.12815472 42.98706915 -25.77435561 41.4780822 -27.78515625 38.28125 C-29.33625153 34.31416299 -29.18844162 30.29405157 -28.6328125 26.11328125 C-26.50755258 22.46997853 -24.49922662 20.67375981 -20.6328125 19.11328125 C-18.06738281 18.88623047 -18.06738281 18.88623047 -15.2109375 18.91796875 C-14.18613281 18.92441406 -13.16132813 18.93085938 -12.10546875 18.9375 C-11.04199219 18.95425781 -9.97851562 18.97101563 -8.8828125 18.98828125 C-7.26439453 19.00181641 -7.26439453 19.00181641 -5.61328125 19.015625 C-2.95289972 19.0391682 -0.29296914 19.07205326 2.3671875 19.11328125 C2.11098066 17.50671365 1.83662879 15.90303295 1.5546875 14.30078125 C1.40386719 13.40746094 1.25304687 12.51414062 1.09765625 11.59375 C0.30431279 8.89977623 -0.4519608 7.83279231 -2.6328125 6.11328125 C-8.94983604 3.88604202 -15.72516013 4.41621866 -21.7578125 7.11328125 C-23.05881844 7.76153334 -24.35438251 8.42157034 -25.6328125 9.11328125 C-26.2928125 7.46328125 -26.9528125 5.81328125 -27.6328125 4.11328125 C-19.2633931 -1.40068918 -9.70599047 -3.26893151 0 0 Z " fill="#080808" transform="translate(219.6328125,322.88671875)"/>
<path d="M0 0 C3.71251766 2.34050026 5.9209195 4.904339 7.875 8.8125 C7.96167255 11.43877133 7.99060135 14.03812483 7.97265625 16.6640625 C7.9712413 17.43809418 7.96982635 18.21212585 7.96836853 19.00961304 C7.96276403 21.48561442 7.95021083 23.96152588 7.9375 26.4375 C7.93248558 28.11458203 7.92792257 29.79166547 7.92382812 31.46875 C7.91279315 35.58336806 7.89552554 39.69791878 7.875 43.8125 C6.225 43.8125 4.575 43.8125 2.875 43.8125 C2.545 41.8325 2.215 39.8525 1.875 37.8125 C1.318125 38.43125 0.76125 39.05 0.1875 39.6875 C-4.91472681 44.37603274 -10.37852223 44.23786801 -17.01953125 44.1328125 C-22.11755673 43.60697842 -24.36602012 41.80516078 -27.7421875 37.98046875 C-30.1703234 34.17364551 -29.87910531 30.16093904 -29.125 25.8125 C-26.29789902 21.93533294 -23.60014017 20.31537953 -19.125 18.8125 C-16.62963867 18.58544922 -16.62963867 18.58544922 -14.04296875 18.6171875 C-13.11162109 18.62363281 -12.18027344 18.63007813 -11.22070312 18.63671875 C-10.26099609 18.65347656 -9.30128906 18.67023438 -8.3125 18.6875 C-7.33345703 18.69652344 -6.35441406 18.70554687 -5.34570312 18.71484375 C-2.93854939 18.73832818 -0.53190257 18.7711716 1.875 18.8125 C1.73331863 17.37458484 1.58648957 15.9371763 1.4375 14.5 C1.35628906 13.69949219 1.27507812 12.89898437 1.19140625 12.07421875 C0.92234307 9.65162821 0.92234307 9.65162821 -0.125 6.8125 C-4.66157923 4.03201596 -9.98843707 4.28166979 -15.125 4.8125 C-17.95496226 5.59383638 -20.42080414 6.62644919 -23.125 7.8125 C-24.115 8.1425 -25.105 8.4725 -26.125 8.8125 C-26.785 7.1625 -27.445 5.5125 -28.125 3.8125 C-19.63693171 -1.66367309 -9.74484685 -3.62550216 0 0 Z " fill="#080808" transform="translate(380.125,323.1875)"/>
<path d="M0 0 C1.98 0 3.96 0 6 0 C6 1.98 6 3.96 6 6 C6.51046875 5.566875 7.0209375 5.13375 7.546875 4.6875 C13.10240253 0.43220231 17.20424131 -0.77227308 24.19140625 -0.3984375 C28.83909902 0.26090139 32.23657425 1.57788246 35.9375 4.5625 C37 6 37 6 37 8 C37.53109375 7.59007812 38.0621875 7.18015625 38.609375 6.7578125 C39.66898438 5.94957031 39.66898438 5.94957031 40.75 5.125 C41.44609375 4.59132813 42.1421875 4.05765625 42.859375 3.5078125 C49.22578562 -0.97655702 55.35974447 -0.69376011 63 0 C67.64946049 1.95766757 70.35191484 5.0070996 72.95043945 9.24023438 C75.30241336 15.42462912 74.4962362 22.47563155 74.3125 29 C74.28738325 30.55334949 74.26457603 32.10673813 74.24414062 33.66015625 C74.18941589 37.44108146 74.10333666 41.22010379 74 45 C72.02 45 70.04 45 68 45 C67.9906543 44.09233887 67.98130859 43.18467773 67.97167969 42.24951172 C67.92749516 38.86073186 67.86580889 35.47318774 67.79248047 32.08496094 C67.7643689 30.62251295 67.74310569 29.1599158 67.72900391 27.69726562 C67.70743581 25.58646831 67.66072344 23.47744571 67.609375 21.3671875 C67.5779541 19.46622314 67.5779541 19.46622314 67.54589844 17.52685547 C66.91062945 13.42260871 65.56514708 11.22760488 63 8 C58.99736177 5.26301813 54.68202576 5.34159013 50 6 C45.48717264 8.25641368 43.19918654 10.50467903 41 15 C40.49925313 18.37988093 40.49925313 18.37988093 40.48828125 22.05078125 C40.47033005 22.70958786 40.45237885 23.36839447 40.43388367 24.04716492 C40.38003344 26.13554631 40.34596892 28.2237026 40.3125 30.3125 C40.2793043 31.7350572 40.24481256 33.15758479 40.20898438 34.58007812 C40.12432399 38.05316915 40.0573923 41.52633913 40 45 C38.02 45 36.04 45 34 45 C33.9906543 44.09233887 33.98130859 43.18467773 33.97167969 42.24951172 C33.92749516 38.86073186 33.86580889 35.47318774 33.79248047 32.08496094 C33.7643689 30.62251295 33.74310569 29.1599158 33.72900391 27.69726562 C33.70743581 25.58646831 33.66072344 23.47744571 33.609375 21.3671875 C33.58842773 20.09987793 33.56748047 18.83256836 33.54589844 17.52685547 C32.91062945 13.42260871 31.56514708 11.22760488 29 8 C24.99736177 5.26301813 20.68202576 5.34159013 16 6 C11.48717264 8.25641368 9.19918654 10.50467903 7 15 C6.49925313 18.37988093 6.49925313 18.37988093 6.48828125 22.05078125 C6.46135445 23.03899117 6.46135445 23.03899117 6.43388367 24.04716492 C6.38003344 26.13554631 6.34596892 28.2237026 6.3125 30.3125 C6.2793043 31.7350572 6.24481256 33.15758479 6.20898438 34.58007812 C6.12432399 38.05316915 6.0573923 41.52633913 6 45 C4.02 45 2.04 45 0 45 C0 30.15 0 15.3 0 0 Z " fill="#070707" transform="translate(108,322)"/>
<path d="M0 0 C-1.41614499 18.76392109 -12.74683856 36.23097231 -26 49 C-26.63035156 49.66128906 -27.26070313 50.32257813 -27.91015625 51.00390625 C-41.16876867 64.02940021 -59.55297326 67.42320955 -77.37744141 67.36523438 C-85.52783063 67.19865315 -93.1216819 66.09092803 -101 64 C-101 63.67 -101 63.34 -101 63 C-99.98800537 63.02094727 -98.97601074 63.04189453 -97.93334961 63.06347656 C-94.10342105 63.13702257 -90.27355176 63.18220637 -86.44311523 63.21972656 C-84.79945307 63.23958568 -83.15585904 63.26668256 -81.51245117 63.30175781 C-61.91788288 63.70885547 -44.88792797 59.65652686 -29.6015625 46.55078125 C-17.96202779 35.13844467 -8.32800735 19.0349445 -5 3 C-13.8739986 0.9803681 -22.62397338 0.56078245 -31.6875 0.5625 C-32.39488312 0.56110016 -33.10226624 0.55970032 -33.83108521 0.55825806 C-47.80024424 0.58100237 -59.39970441 2.44305265 -71.3984375 10.1796875 C-71.92695313 10.45039063 -72.45546875 10.72109375 -73 11 C-73.66 10.67 -74.32 10.34 -75 10 C-67.9392345 5.13804155 -61.22748099 1.44112073 -53 -1 C-52.0615625 -1.2990625 -51.123125 -1.598125 -50.15625 -1.90625 C-34.39827513 -6.29249043 -15.40274711 -5.39890105 0 0 Z " fill="#F35584" transform="translate(358,185)"/>
<path d="M0 0 C0.495 0.99 0.495 0.99 1 2 C-1.96337245 0.88873533 -4.65139406 -0.35530585 -7.4375 -1.875 C-26.58223069 -11.21903369 -48.32870622 -8.61224575 -69 -7 C-61.60116085 15.38017657 -50.71097914 37.13619528 -28.7109375 48.3046875 C-10.99947411 56.647646 10.96741699 55.54734245 30 53 C24.10172433 58.89827567 9.93207602 58.32827945 1.9375 58.375 C-17.47980059 58.20674878 -34.86070258 52.82050863 -49.125 39.25 C-59.62079413 28.20623268 -73.43010033 8.05426427 -74.125 -7.86328125 C-74.08375 -8.56839844 -74.0425 -9.27351562 -74 -10 C-50.29471046 -16.58480265 -20.21978936 -15.02167358 0 0 Z " fill="#F3618C" transform="translate(216,194)"/>
<path d="M0 0 C1.98 0 3.96 0 6 0 C6.33 1.98 6.66 3.96 7 6 C7.7425 5.38125 8.485 4.7625 9.25 4.125 C15.78295479 -0.92319234 21.89501124 -0.76337685 30 0 C35.18845363 2.41531462 38.54833138 6.08148064 41.09716797 11.20581055 C42.21940553 14.67904172 42.22534451 17.62064232 42.1953125 21.26953125 C42.1924826 21.95053391 42.18965271 22.63153656 42.18673706 23.33317566 C42.17560525 25.49313455 42.15051457 27.65266794 42.125 29.8125 C42.11496111 31.28319711 42.10583685 32.75390076 42.09765625 34.22460938 C42.07568913 37.81654286 42.0412082 41.40822985 42 45 C40.02 45 38.04 45 36 45 C35.98541748 44.15816162 35.97083496 43.31632324 35.95581055 42.44897461 C35.89440846 39.2970731 35.82019269 36.14579539 35.73754883 32.99438477 C35.70449066 31.63577457 35.67640039 30.27703334 35.65356445 28.91821289 C35.64933713 18.50786054 35.64933713 18.50786054 32 9 C27.93663935 6.00085286 24.10309348 5.46187622 19.17578125 5.65234375 C14.40356319 6.41487051 11.75593329 9.03628037 8.87011719 12.71533203 C6.74963822 16.43973464 6.46590818 18.67618808 6.390625 22.9296875 C6.35839844 24.21875 6.32617188 25.5078125 6.29296875 26.8359375 C6.2782277 28.18228715 6.26391 29.5286415 6.25 30.875 C6.22181288 32.24482903 6.19188163 33.61462335 6.16015625 34.984375 C6.08962243 38.32297602 6.03684015 41.66088515 6 45 C4.02 45 2.04 45 0 45 C0 30.15 0 15.3 0 0 Z " fill="#0C0C0C" transform="translate(240,322)"/>
<path d="M0 0 C1.98 0 3.96 0 6 0 C6 3.3 6 6.6 6 10 C10.62 10 15.24 10 20 10 C20 11.65 20 13.3 20 15 C15.38 15 10.76 15 6 15 C6.07400065 19.36093469 6.15681516 23.71981611 6.26245117 28.07983398 C6.29569423 29.56279854 6.32372823 31.04588944 6.34643555 32.52905273 C6.37999468 34.66184293 6.43230638 36.79347612 6.48828125 38.92578125 C6.51446533 40.20880127 6.54064941 41.49182129 6.56762695 42.8137207 C6.74983629 45.94302244 6.74983629 45.94302244 8.31713867 47.92651367 C11.66690269 50.06330642 15.7029496 49.26606162 19.4375 48.5 C20.2109375 48.2525 20.2109375 48.2525 21 48 C21.33 49.65 21.66 51.3 22 53 C17.22495142 55.80885211 12.3922417 55.64802905 7 55 C2.81291046 52.69282821 1.41749969 50.46959011 0 46 C-0.22705078 42.58666992 -0.22705078 42.58666992 -0.1953125 38.73046875 C-0.19106766 37.70896477 -0.19106766 37.70896477 -0.18673706 36.66682434 C-0.17560525 34.50686545 -0.15051457 32.34733206 -0.125 30.1875 C-0.11496111 28.71680289 -0.10583685 27.24609924 -0.09765625 25.77539062 C-0.07568913 22.18345714 -0.0412082 18.59177015 0 15 C-2.64 15 -5.28 15 -8 15 C-8 13.35 -8 11.7 -8 10 C-5.36 10 -2.72 10 0 10 C0 6.7 0 3.4 0 0 Z " fill="#040404" transform="translate(295,312)"/>
<path d="M0 0 C-2.10260341 1.14878332 -4.20696539 2.29411192 -6.3125 3.4375 C-6.90740234 3.76298828 -7.50230469 4.08847656 -8.11523438 4.42382812 C-10.72373626 5.83737384 -13.17845899 7.05948633 -16 8 C-2.26826119 26.50799579 15.74932749 43.80920916 39.39453125 47.71875 C54.8751254 49.38981863 69.41733603 45.89977509 84 41 C84.92554688 40.69578125 85.85109375 40.3915625 86.8046875 40.078125 C88.87302233 39.39512347 90.9371131 38.6992837 93 38 C88.66900255 43.18144786 81.08937802 45.43795953 75 48 C73.95972656 48.4434375 72.91945313 48.886875 71.84765625 49.34375 C63.77117476 52.19547108 55.88052983 52.40835055 47.375 52.5 C45.67682129 52.52791626 45.67682129 52.52791626 43.94433594 52.55639648 C24.66864338 52.412067 8.90171666 41.91944303 -4.40234375 28.59375 C-19 12.8232906 -19 12.8232906 -19 7 C-16.40163864 5.63354299 -13.79734444 4.28169331 -11.1875 2.9375 C-10.44951172 2.54755859 -9.71152344 2.15761719 -8.95117188 1.75585938 C-8.23896484 1.39169922 -7.52675781 1.02753906 -6.79296875 0.65234375 C-6.1383667 0.31195068 -5.48376465 -0.02844238 -4.80932617 -0.37915039 C-3 -1 -3 -1 0 0 Z " fill="#F35785" transform="translate(148,214)"/>
<path d="M0 0 C6.82841979 0.88108642 13.27648266 4.30740817 19 8 C16.75349891 20.05439611 2.32854762 32.88903001 -7.0703125 40.05078125 C-10.78301776 42.52096782 -14.58749682 44.73790763 -18.5 46.875 C-19.18787598 47.2568042 -19.87575195 47.6386084 -20.58447266 48.03198242 C-34.40933838 55.27350117 -53.99385683 55.59659096 -68.71289062 51.04492188 C-75.07205909 48.83468997 -81.01267771 46.0738485 -87 43 C-83.08174603 41.69391534 -80.75772592 42.94233927 -77.0625 44.3125 C-57.89726825 51.00961849 -38.51348471 50.86219268 -20 42 C-6.35713378 35.11147083 6.39358553 23.58888576 15 11 C15 10.34 15 9.68 15 9 C10.05 6.36 5.1 3.72 0 1 C0 0.67 0 0.34 0 0 Z " fill="#F25382" transform="translate(352,213)"/>
<path d="M0 0 C1.98 0 3.96 0 6 0 C6.33 2.31 6.66 4.62 7 7 C7.7425 6.21625 8.485 5.4325 9.25 4.625 C13.00396809 1.04166683 14.52687367 0.04910421 19.75 -0.125 C21.35875 -0.063125 21.35875 -0.063125 23 0 C23 1.98 23 3.96 23 6 C22.32453125 6.08636719 21.6490625 6.17273438 20.953125 6.26171875 C15.11509424 7.11575033 15.11509424 7.11575033 10.4375 10.5 C8.0966332 14.57107269 7.82317763 17.0119605 7.68359375 21.7578125 C7.66281265 22.42086395 7.64203156 23.08391541 7.62062073 23.76705933 C7.55520769 25.88626694 7.49627895 28.005599 7.4375 30.125 C7.39430691 31.56121081 7.35069236 32.99740902 7.30664062 34.43359375 C7.19953501 37.95559594 7.09824425 41.47773825 7 45 C4.69 45 2.38 45 0 45 C0 30.15 0 15.3 0 0 Z " fill="#181818" transform="translate(324,322)"/>
<path d="M0 0 C3.30429573 1.62188875 5.20268623 4.36498344 7.3828125 7.234375 C7.86443848 7.86005371 8.34606445 8.48573242 8.84228516 9.13037109 C17.80247234 21.02471456 26.37502882 34.89120148 27.1328125 50.046875 C25.0289178 46.89103295 24.07490277 44.13904033 22.8828125 40.546875 C17.97410254 26.44591957 9.8534201 14.40439607 -0.8671875 4.046875 C-17.17476123 20.84323159 -27.1988121 41.21383164 -27.24731445 64.71899414 C-27.08132586 72.63579305 -25.30476034 79.53843894 -22.8671875 87.046875 C-22.1841594 89.37585108 -21.52534999 91.71069463 -20.8671875 94.046875 C-27.52990104 88.47195143 -30.00584303 76.42433487 -30.8671875 68.046875 C-32.57839294 43.45816911 -22.23959047 23.09375856 -6.81640625 4.5859375 C-2.64521917 0.06640718 -2.64521917 0.06640718 0 0 Z " fill="#F35C88" transform="translate(250.8671875,123.953125)"/>
<path d="M0 0 C0.93134766 0.01804687 1.86269531 0.03609375 2.82226562 0.0546875 C5.11174197 0.10165112 7.39908184 0.16730525 9.6875 0.25 C9.72984851 1.68984939 9.76006722 3.13005898 9.78515625 4.5703125 C9.80328369 5.37227051 9.82141113 6.17422852 9.84008789 7.00048828 C9.6875 9.25 9.6875 9.25 8.125 12.125 C4.12355407 15.61344004 0.38867863 17.07092856 -4.875 17.625 C-8.66452463 17.21159731 -11.08346556 16.24892608 -14.3125 14.25 C-15.87950442 11.11599115 -16.16414561 7.61844905 -15.3125 4.25 C-11.02558707 -0.86577551 -6.14849605 -0.2259518 0 0 Z " fill="#F7F7F7" transform="translate(212.3125,345.75)"/>
<path d="M0 0 C0.87914062 0.01804687 1.75828125 0.03609375 2.6640625 0.0546875 C4.8181832 0.10151621 6.97173774 0.17325006 9.125 0.25 C9.16734851 1.68984939 9.19756722 3.13005898 9.22265625 4.5703125 C9.24078369 5.37227051 9.25891113 6.17422852 9.27758789 7.00048828 C9.125 9.25 9.125 9.25 7.5625 12.125 C3.53792212 15.63360635 -0.20645371 17.07739176 -5.5 17.625 C-10.11609716 17.11210032 -12.6371191 15.4878809 -15.875 12.25 C-16.60862445 6.56441048 -16.60862445 6.56441048 -15.875 4.25 C-10.89047428 -0.37964039 -6.409128 -0.25095983 0 0 Z " fill="#F7F7F7" transform="translate(372.875,345.75)"/>
<path d="M0 0 C2.00961161 7.92743069 2.24309594 15.47638048 2.125 23.625 C2.11597656 24.81996094 2.10695313 26.01492187 2.09765625 27.24609375 C2.07431077 30.16427834 2.04156656 33.08202776 2 36 C1.01 35.505 1.01 35.505 0 35 C-0.43498632 32.2330037 -0.75324951 29.53507666 -1 26.75 C-1.16183002 25.1117571 -1.32591198 23.47373517 -1.4921875 21.8359375 C-1.57436523 21.02092773 -1.65654297 20.20591797 -1.74121094 19.36621094 C-2.30441004 14.21665842 -3.15145871 9.1093018 -4 4 C-13.53334903 7.58030219 -22.85428531 11.15399978 -31.8125 16.03125 C-32.534375 16.3509375 -33.25625 16.670625 -34 17 C-34.66 16.67 -35.32 16.34 -36 16 C-11.31836166 -3.14284549 -11.31836166 -3.14284549 0 0 Z " fill="#F35886" transform="translate(314,140)"/>
<path d="M0 0 C7.37478206 1.07392149 13.29381438 3.24587024 19.8125 6.8125 C20.63169922 7.23853516 21.45089844 7.66457031 22.29492188 8.10351562 C26.93306607 10.58595555 30.509209 13.05604344 34 17 C28.94292641 15.37364513 24.00774199 13.49545351 19.0625 11.5625 C18.28970703 11.26279297 17.51691406 10.96308594 16.72070312 10.65429688 C12.10652955 8.85621233 7.54042042 6.97698732 3 5 C0.77249749 16.23229989 -0.05385428 27.60365958 -1 39 C-2.78190463 35.92546246 -3.25608626 33.68799213 -3.265625 30.1484375 C-3.26820313 29.21386719 -3.27078125 28.27929688 -3.2734375 27.31640625 C-3.26570312 26.34574219 -3.25796875 25.37507813 -3.25 24.375 C-3.25773438 23.42753906 -3.26546875 22.48007813 -3.2734375 21.50390625 C-3.25307322 14.06076138 -2.35871725 7.07615176 0 0 Z " fill="#F35684" transform="translate(187,139)"/>
<path d="M0 0 C0.33 0 0.66 0 1 0 C2.89124703 17.48352808 -7.15324201 35.01219756 -17.75 48.1875 C-20.67625704 51.62856152 -23.78115249 54.8317987 -27 58 C-31.40064304 56.45771856 -33.59595898 52.98573023 -36.25 49.375 C-36.70890625 48.76398438 -37.1678125 48.15296875 -37.640625 47.5234375 C-38.76751252 46.0209208 -39.88472437 44.51115591 -41 43 C-40.67 42.34 -40.34 41.68 -40 41 C-39.22914063 41.9384375 -38.45828125 42.876875 -37.6640625 43.84375 C-36.65134979 45.06275604 -35.63831212 46.28149218 -34.625 47.5 C-34.11710938 48.12003906 -33.60921875 48.74007812 -33.0859375 49.37890625 C-31.76792394 50.95705407 -30.38787368 52.48292487 -29 54 C-28.34 54 -27.68 54 -27 54 C-25.36296877 52.14084371 -23.8614948 50.28760598 -22.375 48.3125 C-21.70839355 47.43053955 -21.70839355 47.43053955 -21.02832031 46.53076172 C-10.28538672 32.1081619 -3.40093425 17.69082467 0 0 Z " fill="#F35C88" transform="translate(278,189)"/>
<path d="M0 0 C0.495 0.99 0.495 0.99 1 2 C-1.96337245 0.88873533 -4.65139406 -0.35530585 -7.4375 -1.875 C-19.42282616 -7.82189639 -30.63765875 -8.50960326 -43.6875 -8.125 C-45.98774161 -8.06953763 -48.28772942 -8.02028828 -50.58833313 -7.9826355 C-52.00425041 -7.95832031 -53.42003715 -7.92331026 -54.83537292 -7.87600708 C-58.49903985 -7.80068071 -59.85090876 -7.90060584 -63 -10 C-62.67 -10.66 -62.34 -11.32 -62 -12 C-42.039753 -16.90416084 -16.37894381 -12.16823494 0 0 Z " fill="#F24C7D" transform="translate(216,194)"/>
<path d="M0 0 C0.66 0.33 1.32 0.66 2 1 C2 1.99 2 2.98 2 4 C-15.79654052 12.69133374 -37.20612644 11.98794749 -56 7 C-56 6.67 -56 6.34 -56 6 C-54.48200806 6.0314209 -54.48200806 6.0314209 -52.93334961 6.06347656 C-49.10342105 6.13702257 -45.27355176 6.18220637 -41.44311523 6.21972656 C-39.79945307 6.23958568 -38.15585904 6.26668256 -36.51245117 6.30175781 C-24.35568855 6.55432728 -13.54013316 5.65674673 -2.21069336 0.80566406 C-1.48116455 0.53979492 -0.75163574 0.27392578 0 0 Z " fill="#F57A9E" transform="translate(313,242)"/>
<path d="M0 0 C0.33 0.66 0.66 1.32 1 2 C1.66 2 2.32 2 3 2 C2.97905273 2.58789307 2.95810547 3.17578613 2.93652344 3.78149414 C2.5502559 16.31685347 3.00056422 27.07467508 7 39 C7.68731269 41.3279385 8.34408422 43.66293072 9 46 C2.36441611 40.44777675 -0.18823235 28.36120677 -1 20 C-1.68196873 5.24774243 -1.68196873 5.24774243 0 0 Z " fill="#F46A93" transform="translate(221,172)"/>
<path d="M0 0 C0.66163651 0.02361099 1.32327301 0.04722198 2.00495911 0.07154846 C4.11421127 0.14800482 6.22307945 0.23210582 8.33203125 0.31640625 C9.76365321 0.36964505 11.19529379 0.42238532 12.62695312 0.47460938 C16.13304701 0.60359507 19.63883696 0.73943749 23.14453125 0.87890625 C23.14453125 1.20890625 23.14453125 1.53890625 23.14453125 1.87890625 C22.38011719 1.88301514 21.61570312 1.88712402 20.828125 1.89135742 C-4.89923181 2.11753292 -4.89923181 2.11753292 -28.25390625 12.05859375 C-28.78242188 12.32929688 -29.3109375 12.6 -29.85546875 12.87890625 C-30.51546875 12.54890625 -31.17546875 12.21890625 -31.85546875 11.87890625 C-24.79494484 7.01711416 -18.03607146 3.44916318 -9.85546875 0.87890625 C-6.32548547 -0.29775484 -3.71909459 -0.14123144 0 0 Z " fill="#F686A7" transform="translate(314.85546875,183.12109375)"/>
<path d="M0 0 C0.87914062 0.00451172 1.75828125 0.00902344 2.6640625 0.01367188 C4.81773803 0.02537663 6.97137817 0.04330931 9.125 0.0625 C9.125 0.3925 9.125 0.7225 9.125 1.0625 C0.71 1.5575 0.71 1.5575 -7.875 2.0625 C-0.945 2.3925 5.985 2.7225 13.125 3.0625 C13.125 3.3925 13.125 3.7225 13.125 4.0625 C8.68819547 4.28797184 4.25062853 4.48995053 -0.1875 4.6875 C-1.45013672 4.75195312 -2.71277344 4.81640625 -4.01367188 4.8828125 C-5.22216797 4.934375 -6.43066406 4.9859375 -7.67578125 5.0390625 C-8.79122314 5.09143066 -9.90666504 5.14379883 -11.0559082 5.19775391 C-13.875 5.0625 -13.875 5.0625 -16.875 3.0625 C-16.545 2.4025 -16.215 1.7425 -15.875 1.0625 C-10.65301723 -0.26385026 -5.34813503 -0.05235373 0 0 Z " fill="#F684A5" transform="translate(169.875,180.9375)"/>
<path d="M0 0 C6.82841979 0.88108642 13.27648266 4.30740817 19 8 C18.36391668 11.13801103 17.29242198 13.52149131 15.625 16.25 C15.20476562 16.95640625 14.78453125 17.6628125 14.3515625 18.390625 C13.90554688 18.92171875 13.45953125 19.4528125 13 20 C10 20 10 20 8 19 C8.5053125 18.44570312 9.010625 17.89140625 9.53125 17.3203125 C10.1809375 16.59585938 10.830625 15.87140625 11.5 15.125 C12.1496875 14.40570313 12.799375 13.68640625 13.46875 12.9453125 C15.20617272 11.15068902 15.20617272 11.15068902 15 9 C10.05 6.36 5.1 3.72 0 1 C0 0.67 0 0.34 0 0 Z " fill="#F35E8A" transform="translate(352,213)"/>
<path d="M0 0 C0.33 0 0.66 0 1 0 C1.7150013 6.60978981 0.59817088 12.23766388 -1.375 18.5 C-1.59631592 19.20640625 -1.81763184 19.9128125 -2.0456543 20.640625 C-3.03709829 23.64442741 -3.7342069 25.7342069 -6 28 C-6.66 27.67 -7.32 27.34 -8 27 C-6.93027262 23.77589143 -5.84807648 20.55700807 -4.74609375 17.34375 C-4.30984572 16.06251706 -3.87364841 14.78126685 -3.4375 13.5 C-3.21642578 12.86191406 -2.99535156 12.22382813 -2.76757812 11.56640625 C-1.4689181 7.72927784 -0.55113491 4.01275753 0 0 Z " fill="#F3638D" transform="translate(278,189)"/>
<path d="M0 0 C0.97453125 0.00451172 1.9490625 0.00902344 2.953125 0.01367188 C5.34381434 0.02539094 7.7343744 0.04179781 10.125 0.0625 C10.125 0.3925 10.125 0.7225 10.125 1.0625 C8.145 1.3925 6.165 1.7225 4.125 2.0625 C4.125 2.3925 4.125 2.7225 4.125 3.0625 C-2.805 3.0625 -9.735 3.0625 -16.875 3.0625 C-16.875 2.4025 -16.875 1.7425 -16.875 1.0625 C-11.23973035 -0.14234722 -5.72963885 -0.0504643 0 0 Z " fill="#F46B93" transform="translate(328.875,180.9375)"/>
<path d="M0 0 C0.66 0.33 1.32 0.66 2 1 C-0.51712189 2.29935464 -3.03829087 3.58954372 -5.5625 4.875 C-6.26697266 5.23980469 -6.97144531 5.60460937 -7.69726562 5.98046875 C-12.07465515 8.19942197 -16.23641861 9.81066956 -21 11 C-21 10.34 -21 9.68 -21 9 C-21.66 8.67 -22.32 8.34 -23 8 C-21.92621094 7.67386719 -20.85242188 7.34773438 -19.74609375 7.01171875 C-18.30983371 6.57051469 -16.87363927 6.12909701 -15.4375 5.6875 C-14.73302734 5.47416016 -14.02855469 5.26082031 -13.30273438 5.04101562 C-9.79563669 3.95817901 -6.44007987 2.7921235 -3.09765625 1.26953125 C-2.07542969 0.85058594 -1.05320313 0.43164062 0 0 Z " fill="#F5789D" transform="translate(239,252)"/>
<path d="M0 0 C5.09469013 0.91248181 9.91854145 2.49748046 14.84375 4.0625 C17.55874635 4.86893456 20.21487997 5.50117253 23 6 C22.67 6.99 22.34 7.98 22 9 C14.43121331 7.63513683 5.59479473 5.59479473 0 0 Z " fill="#F3618C" transform="translate(265,255)"/>
<path d="M0 0 C4.25209792 4.12324647 8.13635705 8.51282966 12 13 C13.65 12.67 15.3 12.34 17 12 C16.34 13.32 15.68 14.64 15 16 C11 16 11 16 9.53613281 14.74658203 C9.09624023 14.17278809 8.65634766 13.59899414 8.203125 13.0078125 C7.71972656 12.38519531 7.23632812 11.76257813 6.73828125 11.12109375 C6.24714844 10.46238281 5.75601563 9.80367187 5.25 9.125 C4.49009766 8.14853516 4.49009766 8.14853516 3.71484375 7.15234375 C0 2.29601162 0 2.29601162 0 0 Z " fill="#F25684" transform="translate(237,230)"/>
<path d="M0 0 C0.33 0.66 0.66 1.32 1 2 C1.66 2 2.32 2 3 2 C2.67 7.94 2.34 13.88 2 20 C1.01 20 0.02 20 -1 20 C-1.02703562 17.41659616 -1.04685611 14.83347692 -1.0625 12.25 C-1.07087891 11.52039063 -1.07925781 10.79078125 -1.08789062 10.0390625 C-1.10391684 6.51329442 -0.95292713 3.38965084 0 0 Z " fill="#F581A3" transform="translate(221,172)"/>
<path d="M0 0 C15.39753606 5.36538462 15.39753606 5.36538462 18.08984375 10.75 C15.07401277 9.61906338 12.24367288 8.31673307 9.40234375 6.8125 C4.81930857 4.47278605 0.04287402 3.08975409 -4.91015625 1.75 C-1.91015625 -0.25 -1.91015625 -0.25 0 0 Z " fill="#F791AF" transform="translate(198.91015625,185.25)"/>
<path d="M0 0 C-2.67490879 1.78327252 -4.89804683 2.81096301 -7.875 3.9375 C-10.80493685 5.07359796 -13.29879896 6.18052437 -16 7.8125 C-16.66 8.204375 -17.32 8.59625 -18 9 C-18.66 8.67 -19.32 8.34 -20 8 C-18.25156882 6.87256334 -16.5011906 5.7481458 -14.75 4.625 C-13.77546875 3.99851563 -12.8009375 3.37203125 -11.796875 2.7265625 C-5.08980583 -1.41383495 -5.08980583 -1.41383495 0 0 Z " fill="#F8A8BF" transform="translate(303,187)"/>
<path d="M0 0 C4.20248734 1.49421772 7.37375593 4.20975357 10.8125 7 C9.8225 7.495 9.8225 7.495 8.8125 8 C6.37692428 7.09176973 4.05054483 6.13171929 1.6875 5.0625 C1.02878906 4.77181641 0.37007812 4.48113281 -0.30859375 4.18164062 C-1.93799505 3.46139802 -3.56316132 2.73158857 -5.1875 2 C-2.1875 0 -2.1875 0 0 0 Z " fill="#F46790" transform="translate(210.1875,148)"/>
<path d="M0 0 C2 1 2 1 3 3 C1.04669132 4.03041513 -0.91281528 5.0490893 -2.875 6.0625 C-3.96554687 6.63097656 -5.05609375 7.19945312 -6.1796875 7.78515625 C-7.11039062 8.18605469 -8.04109375 8.58695313 -9 9 C-9.66 8.67 -10.32 8.34 -11 8 C-7.37 5.36 -3.74 2.72 0 0 Z " fill="#F46C94" transform="translate(289,148)"/>
<path d="M0 0 C-2.1248044 1.1461973 -4.24983431 2.29197292 -6.375 3.4375 C-6.97828125 3.76298828 -7.5815625 4.08847656 -8.203125 4.42382812 C-12.7734375 6.88671875 -12.7734375 6.88671875 -15 8 C-15.66 7.34 -16.32 6.68 -17 6 C-14.73495035 4.80015203 -12.46410112 3.61505231 -10.1875 2.4375 C-9.54490234 2.09525391 -8.90230469 1.75300781 -8.24023438 1.40039062 C-3.33984375 -1.11328125 -3.33984375 -1.11328125 0 0 Z " fill="#F684A5" transform="translate(148,214)"/>
<path d="M0 0 C2.54452069 3.03055273 3.7239002 5.68877218 4.75 9.5 C5.01296875 10.4384375 5.2759375 11.376875 5.546875 12.34375 C5.99880083 14.99297037 5.875264 16.49248692 5 19 C3 13 1 7 -1 1 C-0.67 0.67 -0.34 0.34 0 0 Z " fill="#F47399" transform="translate(272,155)"/>
<path d="M0 0 C0.33 0 0.66 0 1 0 C1.2361959 6.40353322 0.823321 11.84629161 -1 18 C-3 15 -3 15 -2.5390625 11.42578125 C-2.24703719 10.05193491 -1.94185048 8.68083414 -1.625 7.3125 C-1.47289062 6.61060547 -1.32078125 5.90871094 -1.1640625 5.18554688 C-0.78724768 3.4545538 -0.39508737 1.72691413 0 0 Z " fill="#F57A9E" transform="translate(278,189)"/>
<path d="M0 0 C0.33 0 0.66 0 1 0 C0 8.57142857 0 8.57142857 -1 12 C-1.66 12 -2.32 12 -3 12 C-3.29344873 7.01137151 -3.05887078 4.03770942 0 0 Z " fill="#F25483" transform="translate(225,162)"/>
<path d="M0 0 C4.3177458 0.50797009 8.03302114 1.19682779 12 3 C12 3.33 12 3.66 12 4 C5.07 3.505 5.07 3.505 -2 3 C-1.34 2.01 -0.68 1.02 0 0 Z " fill="#F46E96" transform="translate(185,182)"/>
<path d="M0 0 C5.06998019 0.65419099 9.41990777 2.8546409 14 5 C13.67 5.66 13.34 6.32 13 7 C8.50202887 5.31326082 4.27113698 3.18326108 0 1 C0 0.67 0 0.34 0 0 Z " fill="#F68EAD" transform="translate(352,213)"/>
<path d="M0 0 C4.455 0.99 4.455 0.99 9 2 C9 2.66 9 3.32 9 4 C3.375 4.25 3.375 4.25 0 2 C0 1.34 0 0.68 0 0 Z " fill="#F24C7D" transform="translate(188,244)"/>
<path d="M0 0 C3.26008643 3.16952847 6.22237877 6.39937989 9 10 C8.01 10 7.02 10 6 10 C4.39453125 8.3203125 4.39453125 8.3203125 2.8125 6.125 C2.01779297 5.04605469 2.01779297 5.04605469 1.20703125 3.9453125 C0 2 0 2 0 0 Z " fill="#F687A7" transform="translate(237,230)"/>
<path d="M0 0 C-0.33 0.99 -0.66 1.98 -1 3 C-3.375 3.625 -3.375 3.625 -6 4 C-6.66 3.34 -7.32 2.68 -8 2 C-4.77208445 -0.1519437 -3.71599191 -0.20086443 0 0 Z " fill="#F25483" transform="translate(307,246)"/>
<path d="M0 0 C-3.44450737 2.29633824 -5.93812283 2.54016485 -10 3 C-6.46873184 -0.69178035 -5.02635024 -1.19045137 0 0 Z " fill="#F68AAA" transform="translate(303,187)"/>
</svg>
